<svg xmlns="http://www.w3.org/2000/svg" viewBox="0 0 319.46 81"><defs><style>.cls-1{fill:#202020;}.cls-2{fill:#fff;}</style></defs><g id="Layer_5" data-name="Layer 5"><path class="cls-1" d="M71.44,80h-.86a13.77,13.77,0,0,0,2.07-1.83A15.85,15.85,0,0,0,77,66.36L74.25,15.43a17.27,17.27,0,0,0-.63-3.89A14.25,14.25,0,0,1,81,23.23l2.4,44.2A11.93,11.93,0,0,1,71.44,80Z"/><path class="cls-1" d="M66.17,80a14.06,14.06,0,0,1-5.1,1H13.77A13.75,13.75,0,0,1,0,66.49L2.78,15.56A16.46,16.46,0,0,1,19.25,0H55.61A16.44,16.44,0,0,1,70.89,10.35a16.18,16.18,0,0,1,1.17,5.21l2.78,50.93A13.78,13.78,0,0,1,66.17,80Z"/><path class="cls-2" d="M67.11,34.13c-3.57,14.78-16,25.66-30.73,25.66S9.18,48.91,5.66,34.13A4.26,4.26,0,1,1,14,32.33c2.19,11.18,11.38,19.58,22.39,19.58s20.21-8.4,22.37-19.58a4.28,4.28,0,1,1,8.36,1.8Z"/><path class="cls-2" d="M67.29,17.73v.33a4.38,4.38,0,0,1-.8,2.6,3.87,3.87,0,0,1-.55.69,6.06,6.06,0,0,1-.69.58,6.65,6.65,0,0,1-.84.44,4.8,4.8,0,0,1-1.82.33h-.44a2.32,2.32,0,0,0-.5-.07,2,2,0,0,1-.45-.15,1.74,1.74,0,0,1-.3-.07,2.7,2.7,0,0,1-.54-.26,1.71,1.71,0,0,1-.44-.32,2.79,2.79,0,0,1-.62-.48,5.39,5.39,0,0,1-.4-.45,3.76,3.76,0,0,1-.62-1.09,3.12,3.12,0,0,1-.15-.36c0-.15-.07-.29-.11-.48a2.48,2.48,0,0,1,0-.47,1.6,1.6,0,0,1,0-.44A5,5,0,0,1,58.06,17a1.56,1.56,0,0,1,.07-.3,2,2,0,0,1,.23-.65,1,1,0,0,1,.2-.33,3.83,3.83,0,0,1,.74-1c.12-.11.19-.24.36-.31a1.87,1.87,0,0,1,.33-.26,5.16,5.16,0,0,1,.91-.49,2,2,0,0,0,.26-.11,5.25,5.25,0,0,1,1.43-.2,4.63,4.63,0,0,1,3.14,1.17,5.42,5.42,0,0,1,1.19,1.63C67.07,16.65,67.18,17.18,67.29,17.73Z"/><path class="cls-2" d="M58,19a.15.15,0,0,1,0-.07,1.32,1.32,0,0,1,0-.4A2.48,2.48,0,0,0,58,19Z"/><path class="cls-1" d="M164.06,15.33l-22.58,51.9H129.39l-2.5-26.92c-.26-2.77-.37-5.76-.35-9,0-.9,0-1.82,0-2.75-.3.89-.58,1.76-.85,2.62q-1.5,4.83-3.31,9.12L110.94,67.23H98.81l-5.33-51.9H105l1.81,25.57q.21,3.24.23,6.77t0,7.11v1.35c.17-.44.32-.9.47-1.35q1.23-3.57,2.49-7.11c.85-2.35,1.7-4.61,2.57-6.77l10.62-25.57h11l2.09,25.57q.24,3.24.33,6.77t.14,7.11c0,.42,0,.83,0,1.25l.42-1.25c.78-2.38,1.59-4.75,2.4-7.11s1.65-4.61,2.51-6.77l10.27-25.57Z"/><path class="cls-1" d="M175.27,68a18.57,18.57,0,0,1-8.92-2,13.66,13.66,0,0,1-5.64-5.63,17.66,17.66,0,0,1-2-8.5,26.46,26.46,0,0,1,1.52-8.95,24.06,24.06,0,0,1,4.35-7.58,20.07,20.07,0,0,1,6.91-5.22,21.5,21.5,0,0,1,9.2-1.9,18.55,18.55,0,0,1,8.88,2,13.51,13.51,0,0,1,5.65,5.63,17.87,17.87,0,0,1,1.95,8.55,27.1,27.1,0,0,1-1.48,8.92,23.28,23.28,0,0,1-4.34,7.56,20.52,20.52,0,0,1-6.91,5.22A21.32,21.32,0,0,1,175.27,68Zm.42-8.22a8.29,8.29,0,0,0,4.95-1.5,12.11,12.11,0,0,0,3.45-3.88,20.27,20.27,0,0,0,2-5.11,20.92,20.92,0,0,0,.68-5.15,10.11,10.11,0,0,0-.75-4.08,6,6,0,0,0-2.19-2.66,6.32,6.32,0,0,0-3.57-1,8.33,8.33,0,0,0-4.93,1.48,11.82,11.82,0,0,0-3.47,3.85,19.84,19.84,0,0,0-2,5.09,21,21,0,0,0-.68,5.19,8.75,8.75,0,0,0,1.67,5.62A5.8,5.8,0,0,0,175.69,59.78Z"/><path class="cls-1" d="M200.74,67.23l6.34-38.45h10.1l-1.12,6.65h.35a12.34,12.34,0,0,1,4.37-5.31,10.84,10.84,0,0,1,6.08-1.8c.56,0,1.14,0,1.73.07a13.59,13.59,0,0,1,1.55.21l-1.54,9.2a10.55,10.55,0,0,0-2-.33c-.86-.08-1.67-.12-2.44-.12a9.46,9.46,0,0,0-4.32,1,9.29,9.29,0,0,0-3.38,2.85,9.94,9.94,0,0,0-1.77,4.36l-3.59,21.66Z"/><polygon class="cls-1" points="254.94 45.45 266.61 67.23 254.35 67.23 246.08 51.57 242.56 54.91 240.51 67.23 230.1 67.23 238.7 15.33 249.12 15.33 244.44 43.55 244.94 43.55 260.17 28.77 272.22 28.77 254.94 45.45"/><path class="cls-1" d="M271.07,67.23l6.34-38.45h10.41l-6.37,38.45Zm12.36-43.44a4.88,4.88,0,0,1-3.81-1.56,4.46,4.46,0,0,1-1.06-3.84,6.13,6.13,0,0,1,2.33-3.83A6.75,6.75,0,0,1,285.21,13a4.92,4.92,0,0,1,3.85,1.56,4.38,4.38,0,0,1,1,3.83,6,6,0,0,1-2.3,3.84A6.8,6.8,0,0,1,283.43,23.79Z"/><path class="cls-1" d="M304.44,55.84a3.43,3.43,0,0,0,.4,2.72,3.22,3.22,0,0,0,2.6.83,14.86,14.86,0,0,0,1.77-.12c.74-.08,1.31-.15,1.71-.22l-.14,7.9a23.61,23.61,0,0,1-3.33.55c-1.14.1-2.27.15-3.36.15-3.94,0-6.78-.91-8.5-2.73s-2.3-4.49-1.74-8l3.35-20.17h-5.58l1.29-8h5.61l1.57-9.44H310.5l-1.57,9.44h7.32l-1.29,8h-7.35Z"/></g></svg>