<svg xmlns="http://www.w3.org/2000/svg" viewBox="0 0 375.86 365.09"><defs><style>.cls-1{fill:#202020;}.cls-2{fill:#fff;}</style></defs><g id="Layer_5" data-name="Layer 5"><path class="cls-1" d="M319.63,357.54H315.8a61.65,61.65,0,0,0,9.19-8.09A70.24,70.24,0,0,0,344.38,297L332.08,71.56a76.49,76.49,0,0,0-2.83-17.24,63.05,63.05,0,0,1,32.56,51.76l10.63,195.68A52.82,52.82,0,0,1,319.63,357.54Z"/><path class="cls-1" d="M296.27,357.54a61.84,61.84,0,0,1-22.55,4.3H64.29A60.87,60.87,0,0,1,3.44,297.59L15.65,72.14A72.89,72.89,0,0,1,88.56,3.24h161a72.77,72.77,0,0,1,67.65,45.81,71.67,71.67,0,0,1,5.18,23.09l12.31,225.45A61,61,0,0,1,296.27,357.54Z"/><path class="cls-2" d="M300.43,154.35c-15.78,65.4-70.73,113.6-136,113.6S44,219.75,28.41,154.35c-2.88-11.68,6.33-22.94,18.44-22.94a18.81,18.81,0,0,1,18.41,15c9.7,49.51,50.42,86.71,99.13,86.71s89.49-37.2,99-86.71a18.86,18.86,0,0,1,18.57-15C294,131.41,303.22,142.67,300.43,154.35Z"/><path class="cls-2" d="M301.25,81.71v1.48a19.38,19.38,0,0,1-3.54,11.52,16,16,0,0,1-2.46,3.05,23.17,23.17,0,0,1-3.05,2.55,25,25,0,0,1-3.7,2,21,21,0,0,1-8.05,1.48h-2a8.89,8.89,0,0,0-2.23-.33,9.13,9.13,0,0,1-2-.66,5.22,5.22,0,0,1-1.31-.32,10.59,10.59,0,0,1-2.39-1.15,6.36,6.36,0,0,1-2-1.41,11,11,0,0,1-2.72-2.13,21.48,21.48,0,0,1-1.81-2,17.42,17.42,0,0,1-2.72-4.86,8.08,8.08,0,0,1-.65-1.57c-.17-.66-.33-1.31-.5-2.13a9,9,0,0,1-.16-2.07,8.15,8.15,0,0,1-.16-2,21.1,21.1,0,0,1,.49-4.69,4.8,4.8,0,0,1,.33-1.31,9.33,9.33,0,0,1,1-2.89,4.57,4.57,0,0,1,.92-1.47,16.17,16.17,0,0,1,3.28-4.37,5,5,0,0,1,1.57-1.38,9.28,9.28,0,0,1,1.48-1.15,21.66,21.66,0,0,1,4-2.16c.33-.16.82-.32,1.15-.49a23.72,23.72,0,0,1,6.33-.89,20.47,20.47,0,0,1,13.89,5.18,21.85,21.85,0,0,1,2.06,2.23,19.5,19.5,0,0,1,3.21,5C300.27,77,300.76,79.32,301.25,81.71Z"/><path class="cls-2" d="M260.21,87.23a.6.6,0,0,1-.16-.33,6.26,6.26,0,0,1,0-1.74A9,9,0,0,0,260.21,87.23Z"/></g></svg>